<?xml version="1.0" encoding="UTF-8" standalone="no"?>
<!-- Created with Inkscape (http://www.inkscape.org/) -->

<svg
   xmlns:dc="http://purl.org/dc/elements/1.1/"
   xmlns:cc="http://creativecommons.org/ns#"
   xmlns:rdf="http://www.w3.org/1999/02/22-rdf-syntax-ns#"
   xmlns:svg="http://www.w3.org/2000/svg"
   xmlns="http://www.w3.org/2000/svg"
   xmlns:xlink="http://www.w3.org/1999/xlink"
   xmlns:sodipodi="http://sodipodi.sourceforge.net/DTD/sodipodi-0.dtd"
   xmlns:inkscape="http://www.inkscape.org/namespaces/inkscape"
   id="svg2"
   version="1.1"
   inkscape:version="0.91 r13725"
   width="127.11465"
   height="118.25058"
   viewBox="0 0 127.11465 118.25058"
   sodipodi:docname="republica_rerig.svg"
   inkscape:export-filename="/Users/AchilleTalon/Documents/GitHub/hollowmountain3/images/2014/rhys-colarado-2014/republica_rerig.png"
   inkscape:export-xdpi="249.8"
   inkscape:export-ydpi="249.8">
  <metadata
     id="metadata8">
    <rdf:RDF>
      <cc:Work
         rdf:about="">
        <dc:format>image/svg+xml</dc:format>
        <dc:type
           rdf:resource="http://purl.org/dc/dcmitype/StillImage" />
        <dc:title></dc:title>
      </cc:Work>
    </rdf:RDF>
  </metadata>
  <defs
     id="defs6">
    <marker
       inkscape:isstock="true"
       style="overflow:visible"
       id="marker4543"
       refX="0"
       refY="0"
       orient="auto"
       inkscape:stockid="Arrow1Mend">
      <path
         transform="matrix(-0.4,0,0,-0.4,-4,0)"
         style="fill:#000000;fill-opacity:1;fill-rule:evenodd;stroke:#000000;stroke-width:1pt;stroke-opacity:1"
         d="M 0,0 5,-5 -12.5,0 5,5 0,0 Z"
         id="path4545"
         inkscape:connector-curvature="0" />
    </marker>
    <marker
       inkscape:stockid="Arrow1Mend"
       orient="auto"
       refY="0"
       refX="0"
       id="Arrow1Mend"
       style="overflow:visible"
       inkscape:isstock="true"
       inkscape:collect="always">
      <path
         id="path4276"
         d="M 0,0 5,-5 -12.5,0 5,5 0,0 Z"
         style="fill:#000000;fill-opacity:1;fill-rule:evenodd;stroke:#000000;stroke-width:1pt;stroke-opacity:1"
         transform="matrix(-0.4,0,0,-0.4,-4,0)"
         inkscape:connector-curvature="0" />
    </marker>
  </defs>
  <sodipodi:namedview
     pagecolor="#ffffff"
     bordercolor="#666666"
     borderopacity="1"
     objecttolerance="10"
     gridtolerance="10"
     guidetolerance="10"
     inkscape:pageopacity="0"
     inkscape:pageshadow="2"
     inkscape:window-width="1440"
     inkscape:window-height="775"
     id="namedview4"
     showgrid="false"
     inkscape:zoom="5.018607"
     inkscape:cx="66.466191"
     inkscape:cy="24.926419"
     inkscape:window-x="0"
     inkscape:window-y="1"
     inkscape:window-maximized="1"
     inkscape:current-layer="svg2"
     showguides="false"
     fit-margin-top="0"
     fit-margin-left="0"
     fit-margin-right="0"
     fit-margin-bottom="0" />
  <image
     sodipodi:absref="/Users/AchilleTalon/Documents/GitHub/hollowmountain3/images/2014/rhys-colarado-2014/republica_rerig.png"
     xlink:href="republica_rerig.png"
     y="-90.86187"
     x="301.27881"
     id="image10"
     preserveAspectRatio="none"
     height="118.25058"
     width="127.11465" />
  <path
     style="color:#000000;clip-rule:nonzero;display:inline;overflow:visible;visibility:visible;opacity:1;isolation:auto;mix-blend-mode:normal;color-interpolation:sRGB;color-interpolation-filters:linearRGB;solid-color:#000000;solid-opacity:1;fill:none;fill-opacity:1;fill-rule:nonzero;stroke:#000000;stroke-width:0.75;stroke-linecap:butt;stroke-linejoin:bevel;stroke-miterlimit:4;stroke-dasharray:none;stroke-dashoffset:0;stroke-opacity:1;color-rendering:auto;image-rendering:auto;shape-rendering:auto;text-rendering:auto;enable-background:accumulate"
     d="m 51.472792,8.3495986 c 0,0 -1.056728,0.84539 -1.549867,1.05673 -0.49314,0.21135 -0.774934,1.2680704 -0.845382,1.5498704 -0.07045,0.28179 -1.408971,0.56359 0.211345,1.26807 1.620316,0.70449 1.127176,0.2818 3.170183,0.98628 2.043007,0.70449 2.465698,1.19763 3.099735,0.70449 0.634036,-0.49314 0.845382,-0.4227 1.197624,-1.05673 0.352243,-0.63404 0.704486,-0.98628 0.774934,-1.26807 0.07045,-0.2818 0.211346,-0.91584 -0.07045,-1.19763 -0.281794,-0.28179 -0.774934,-0.5635904 -1.268074,-0.7044804 -0.493139,-0.1409 -1.127176,-0.21135 -1.690764,-0.21135 -0.563588,0 -0.281794,-0.0704 -1.127176,-0.28179 -0.845382,-0.21135 -1.90211,-0.84539 -1.90211,-0.84539 z"
     id="path4161"
     inkscape:connector-curvature="0" />
  <path
     style="color:#000000;clip-rule:nonzero;display:inline;overflow:visible;visibility:visible;opacity:1;isolation:auto;mix-blend-mode:normal;color-interpolation:sRGB;color-interpolation-filters:linearRGB;solid-color:#000000;solid-opacity:1;fill:none;fill-opacity:1;fill-rule:nonzero;stroke:#000000;stroke-width:0.75;stroke-linecap:butt;stroke-linejoin:bevel;stroke-miterlimit:4;stroke-dasharray:none;stroke-dashoffset:0;stroke-opacity:1;color-rendering:auto;image-rendering:auto;shape-rendering:auto;text-rendering:auto;enable-background:accumulate"
     d="m 14.839566,29.765949 c 0.563588,-0.1409 6.199469,-1.54987 6.763057,-0.98628 0.563588,0.56359 1.972558,2.11346 2.677044,2.39525 0.704485,0.2818 2.395249,0.84538 3.522425,0.70449 1.127176,-0.1409 1.831661,-0.42269 2.958838,-0.70449 1.127176,-0.28179 7.044851,-1.40897 7.044851,-1.40897 l 6.058572,0.2818 c 0,0 3.522425,0.98627 4.22691,0.98627 0.704486,0 6.481264,0 7.467543,-0.14089 0.986279,-0.1409 4.22691,-1.26808 6.058572,-1.54987 1.831661,-0.28179 8.453821,-1.26807 9.158306,-1.26807 0.704485,0 6.763057,0.42269 6.763057,0.42269 l 2.39525,-0.42269"
     id="path4163"
     inkscape:connector-curvature="0" />
  <path
     style="color:#000000;clip-rule:nonzero;display:inline;overflow:visible;visibility:visible;opacity:1;isolation:auto;mix-blend-mode:normal;color-interpolation:sRGB;color-interpolation-filters:linearRGB;solid-color:#000000;solid-opacity:1;fill:#40b8f9;fill-opacity:1;fill-rule:nonzero;stroke:none;stroke-width:0.34999999;stroke-linecap:butt;stroke-linejoin:bevel;stroke-miterlimit:4;stroke-dasharray:none;stroke-dashoffset:0;stroke-opacity:1;color-rendering:auto;image-rendering:auto;shape-rendering:auto;text-rendering:auto;enable-background:accumulate"
     d="m 74.720801,119.79915 c 0,0 1.972558,-6.48126 2.81794,-8.45382 0.845382,-1.97256 2.536147,-9.581 3.663323,-12.117151 1.127176,-2.53614 0.563588,-12.39893 0,-15.49867 -0.563588,-3.09973 -1.40897,-7.89023 -1.40897,-10.98997 0,-3.09973 -0.845382,-10.70817 0,-14.93508 0.845382,-4.22691 3.381528,-9.581 4.22691,-13.52612 0.845383,-3.94511 1.408971,-7.04485 1.972559,-11.55355 0.563588,-4.50871 0,-8.73562 -0.563588,-11.83535 -0.563588,-3.09974 3.532438,-22.535234 3.532438,-22.535234 l -13.526114,-0.84538 c 0,0 -3.814233,21.971644 -4.096027,23.662404 -0.281794,1.69077 -0.563588,16.90765 -1.127176,18.59841 -0.563588,1.69076 -0.563588,12.96253 -2.254352,17.18944 -1.690765,4.22691 -4.508705,33.81528 -4.790499,34.94246 -0.281794,1.12717 -1.972558,7.89023 -1.690764,10.708171 0.281794,2.81794 2.536146,6.76306 0.281794,9.86279 -2.254353,3.09974 -1.972559,7.04486 -1.972559,7.04486"
     id="path4167"
     inkscape:connector-curvature="0"
     sodipodi:nodetypes="cssssssssccssssssc" />
  <path
     style="color:#000000;clip-rule:nonzero;display:inline;overflow:visible;visibility:visible;opacity:1;isolation:auto;mix-blend-mode:normal;color-interpolation:sRGB;color-interpolation-filters:linearRGB;solid-color:#000000;solid-opacity:1;fill:#9fcee7;fill-opacity:1;fill-rule:nonzero;stroke:none;stroke-width:0.34999999;stroke-linecap:butt;stroke-linejoin:bevel;stroke-miterlimit:4;stroke-dasharray:none;stroke-dashoffset:0;stroke-opacity:1;color-rendering:auto;image-rendering:auto;shape-rendering:auto;text-rendering:auto;enable-background:accumulate"
     d="m 82.150008,2.4385095 c 0,0 -4.611267,15.9147795 -4.329473,20.4234895 0.281794,4.5087 3.381529,9.2992 2.817941,10.70817 -0.563588,1.40897 -3.099735,6.76306 -4.226911,10.14459 -1.127176,3.38153 -3.663322,21.97993 -3.663322,21.97993 0,0 3.381528,5.35409 3.381528,6.19947 0,0.84538 -1.972558,5.35409 -2.254352,7.04485 -0.281794,1.69077 -3.381529,17.47123 -3.381529,17.47123"
     id="path4169"
     inkscape:connector-curvature="0"
     sodipodi:nodetypes="cssscssc" />
  <path
     style="color:#000000;clip-rule:nonzero;display:inline;overflow:visible;visibility:visible;opacity:1;isolation:auto;mix-blend-mode:normal;color-interpolation:sRGB;color-interpolation-filters:linearRGB;solid-color:#000000;solid-opacity:1;fill:#9fcee7;fill-opacity:1;fill-rule:nonzero;stroke:none;stroke-width:0.34999999;stroke-linecap:butt;stroke-linejoin:bevel;stroke-miterlimit:4;stroke-dasharray:none;stroke-dashoffset:0;stroke-opacity:1;color-rendering:auto;image-rendering:auto;shape-rendering:auto;text-rendering:auto;enable-background:accumulate"
     d="m 70.212096,114.72686 c 0,0 3.099735,-8.73562 3.945117,-10.14459 0.845382,-1.40897 2.536146,-5.072291 2.536146,-7.044851 0,-1.97256 0.845382,-3.66332 -0.281794,-5.63588 -1.127176,-1.97256 -1.972558,-5.35409 -1.972558,-5.35409"
     id="path4179"
     inkscape:connector-curvature="0" />
  <path
     style="color:#000000;clip-rule:nonzero;display:inline;overflow:visible;visibility:visible;opacity:1;isolation:auto;mix-blend-mode:normal;color-interpolation:sRGB;color-interpolation-filters:linearRGB;solid-color:#000000;solid-opacity:1;fill:#9fcee7;fill-opacity:1;fill-rule:nonzero;stroke:none;stroke-width:0.34999999;stroke-linecap:butt;stroke-linejoin:bevel;stroke-miterlimit:4;stroke-dasharray:none;stroke-dashoffset:0;stroke-opacity:1;color-rendering:auto;image-rendering:auto;shape-rendering:auto;text-rendering:auto;enable-background:accumulate"
     d="m 72.184654,57.522659 c 0,0 -4.508704,9.8628 -5.072292,11.55356 -0.563588,1.69077 0,12.39894 0,13.52611 0,1.12718 -0.845383,12.96253 -1.690765,14.3715 -0.845382,1.40897 -1.127176,6.199471 -1.690764,7.326651 -0.563588,1.12717 -0.281794,4.5087 -0.281794,5.63588 0,1.12717 1.40897,5.35408 1.40897,5.35408 l 0.563588,0.56359"
     id="path4181"
     inkscape:connector-curvature="0" />
  <path
     style="color:#000000;clip-rule:nonzero;display:inline;overflow:visible;visibility:visible;opacity:1;isolation:auto;mix-blend-mode:normal;color-interpolation:sRGB;color-interpolation-filters:linearRGB;solid-color:#000000;solid-opacity:1;fill:#cfefff;fill-opacity:1;fill-rule:nonzero;stroke:none;stroke-width:0.34999999;stroke-linecap:butt;stroke-linejoin:bevel;stroke-miterlimit:4;stroke-dasharray:none;stroke-dashoffset:0;stroke-opacity:1;color-rendering:auto;image-rendering:auto;shape-rendering:auto;text-rendering:auto;enable-background:accumulate"
     d="m 76.411565,87.674629 c 0,0 -2.536146,-3.94512 -3.381528,-7.04485 -0.845383,-3.09974 0,-15.78047 0,-17.47123 0,-1.69077 1.690764,-7.32665 1.690764,-9.581 0,-2.25435 -3.099735,-11.83535 -2.817941,-14.0897 0.281794,-2.25436 0,-9.01741 0.281794,-11.27177 0.281794,-2.25435 0.281794,-7.04485 0.563589,-8.17202 0.281794,-1.12718 6.156986,-17.8873495 6.156986,-17.8873495 L 76.175438,20.896267 c 0,0 -2.836752,4.531414 -1.641201,8.540757 0.120786,0.405065 0.424157,4.43497 0.846848,7.11201 0.422691,2.67704 0.0442,4.206885 0.0442,4.206885 l 0,6.90395 c 0,0.70449 -0.281794,2.67705 -0.281794,3.80422 0,1.12718 -1.549867,6.76306 -1.549867,6.76306 0,0 -1.127176,2.39525 -0.563588,3.09973 0.563588,0.70449 1.972558,3.94512 1.972558,4.36781 l 0,0.98628"
     id="path4183"
     inkscape:connector-curvature="0"
     sodipodi:nodetypes="cssssssccsscsscssc" />
  <path
     style="color:#000000;clip-rule:nonzero;display:inline;overflow:visible;visibility:visible;opacity:1;isolation:auto;mix-blend-mode:normal;color-interpolation:sRGB;color-interpolation-filters:linearRGB;solid-color:#000000;solid-opacity:1;fill:#cfefff;fill-opacity:1;fill-rule:nonzero;stroke:none;stroke-width:0.34999999;stroke-linecap:butt;stroke-linejoin:bevel;stroke-miterlimit:4;stroke-dasharray:none;stroke-dashoffset:0;stroke-opacity:1;color-rendering:auto;image-rendering:auto;shape-rendering:auto;text-rendering:auto;enable-background:accumulate"
     d="m 72.466448,96.973829 c 0,0 -4.22691,9.017411 -4.790498,10.144591 -0.563588,1.12717 -0.563588,5.91767 -0.563588,7.04485 0,1.12717 0.281794,3.38153 0.281794,3.38153 l 0.281794,0.84538"
     id="path4185"
     inkscape:connector-curvature="0" />
  <path
     style="color:#000000;clip-rule:nonzero;display:inline;overflow:visible;visibility:visible;opacity:1;isolation:auto;mix-blend-mode:normal;color-interpolation:sRGB;color-interpolation-filters:linearRGB;solid-color:#000000;solid-opacity:1;fill:#cfefff;fill-opacity:1;fill-rule:nonzero;stroke:none;stroke-width:0.34999999;stroke-linecap:butt;stroke-linejoin:bevel;stroke-miterlimit:4;stroke-dasharray:none;stroke-dashoffset:0;stroke-opacity:1;color-rendering:auto;image-rendering:auto;shape-rendering:auto;text-rendering:auto;enable-background:accumulate"
     d="m 78.502442,92.605729 c 0,0 1.39481,3.78591 0.996293,4.98146 -0.398517,1.19555 -0.597776,2.988881 -2.391102,5.977761 -1.793326,2.98887 -1.394809,3.78591 -2.191843,4.98146 -0.797034,1.19555 -1.793327,0.99629 -2.391102,2.78962 -0.597776,1.79332 -0.597776,2.78961 -0.797034,3.78591 -0.199259,0.99629 -0.199259,1.79332 -0.199259,1.79332 l 0,0.19926"
     id="path4187"
     inkscape:connector-curvature="0" />
  <path
     style="color:#000000;clip-rule:nonzero;display:inline;overflow:visible;visibility:visible;opacity:1;isolation:auto;mix-blend-mode:normal;color-interpolation:sRGB;color-interpolation-filters:linearRGB;solid-color:#000000;solid-opacity:1;fill:#cfefff;fill-opacity:1;fill-rule:nonzero;stroke:none;stroke-width:0.34999999;stroke-linecap:butt;stroke-linejoin:bevel;stroke-miterlimit:4;stroke-dasharray:none;stroke-dashoffset:0;stroke-opacity:1;color-rendering:auto;image-rendering:auto;shape-rendering:auto;text-rendering:auto;enable-background:accumulate"
     d="m 84.892874,5.4789895 c 0,0 -1.278086,8.2504225 -1.477345,9.6452325 -0.199258,1.39481 0.267634,6.146967 0.267634,8.338817 0,2.19184 -4.268179,3.173971 -5.264472,4.369521 -0.996292,1.19555 -1.01217,13.563742 -1.211428,14.560032 -0.199259,0.99629 4.184428,-20.822514 4.184428,-20.822514"
     id="path4189"
     inkscape:connector-curvature="0"
     sodipodi:nodetypes="cssssc" />
  <path
     style="color:#000000;clip-rule:nonzero;display:inline;overflow:visible;visibility:visible;opacity:1;isolation:auto;mix-blend-mode:normal;color-interpolation:sRGB;color-interpolation-filters:linearRGB;solid-color:#000000;solid-opacity:1;fill:#cfefff;fill-opacity:1;fill-rule:nonzero;stroke:none;stroke-width:0.34999999;stroke-linecap:butt;stroke-linejoin:bevel;stroke-miterlimit:4;stroke-dasharray:none;stroke-dashoffset:0;stroke-opacity:1;color-rendering:auto;image-rendering:auto;shape-rendering:auto;text-rendering:auto;enable-background:accumulate"
     d="m 79.498735,36.614099 c 0,0 -0.199259,2.59036 0,3.78591 0.199258,1.19555 0.996292,2.98887 0.996292,3.78591 0,0.79703 0.199259,1.39481 -0.199258,2.59036 -0.398517,1.19555 -0.797034,1.59407 -1.39481,2.78962 -0.597775,1.19555 -0.996292,1.79332 -1.793326,3.18813 -0.797034,1.39481 -0.797034,2.3911 -0.797034,2.3911 l -2.988877,2.39111"
     id="path4191"
     inkscape:connector-curvature="0" />
  <path
     style="opacity:1;fill:#000000;fill-opacity:1;fill-rule:nonzero;stroke:none;stroke-width:0.34999999;stroke-linecap:butt;stroke-linejoin:bevel;stroke-miterlimit:4;stroke-dasharray:none;stroke-dashoffset:0;stroke-opacity:1"
     id="path4195"
     sodipodi:type="arc"
     sodipodi:cx="67.144714"
     sodipodi:cy="21.22139"
     sodipodi:rx="0.69740468"
     sodipodi:ry="0.94647777"
     sodipodi:start="0"
     sodipodi:end="6.270043"
     sodipodi:open="true"
     d="m 67.842119,21.22139 a 0.69740468,0.94647777 0 0 1 -0.695113,0.946472 0.69740468,0.94647777 0 0 1 -0.699681,-0.940253 0.69740468,0.94647777 0 0 1 0.690515,-0.952651 0.69740468,0.94647777 0 0 1 0.704219,0.933993" />
  <path
     d="m 48.215158,23.712112 a 0.69740468,0.94647777 0 0 1 -0.695113,0.946473 0.69740468,0.94647777 0 0 1 -0.699681,-0.940253 0.69740468,0.94647777 0 0 1 0.690516,-0.952651 0.69740468,0.94647777 0 0 1 0.704218,0.933993"
     sodipodi:open="true"
     sodipodi:end="6.270043"
     sodipodi:start="0"
     sodipodi:ry="0.94647777"
     sodipodi:rx="0.69740468"
     sodipodi:cy="23.712112"
     sodipodi:cx="47.517754"
     sodipodi:type="arc"
     id="use4197"
     style="opacity:1;fill:#000000;fill-opacity:1;fill-rule:nonzero;stroke:none;stroke-width:0.34999999;stroke-linecap:butt;stroke-linejoin:bevel;stroke-miterlimit:4;stroke-dasharray:none;stroke-dashoffset:0;stroke-opacity:1" />
  <path
     style="opacity:1;fill:#000000;fill-opacity:1;fill-rule:nonzero;stroke:none;stroke-width:0.34999999;stroke-linecap:butt;stroke-linejoin:bevel;stroke-miterlimit:4;stroke-dasharray:none;stroke-dashoffset:0;stroke-opacity:1"
     id="use4201"
     sodipodi:type="arc"
     sodipodi:cx="42.635921"
     sodipodi:cy="29.889114"
     sodipodi:rx="0.69740468"
     sodipodi:ry="0.94647777"
     sodipodi:start="0"
     sodipodi:end="6.270043"
     sodipodi:open="true"
     d="m 43.333326,29.889114 a 0.69740468,0.94647777 0 0 1 -0.695113,0.946473 0.69740468,0.94647777 0 0 1 -0.699681,-0.940253 0.69740468,0.94647777 0 0 1 0.690515,-0.952651 0.69740468,0.94647777 0 0 1 0.704219,0.933993" />
  <path
     d="m 30.381525,49.814957 a 0.69740468,0.94647777 0 0 1 -0.695113,0.946472 0.69740468,0.94647777 0 0 1 -0.699681,-0.940253 0.69740468,0.94647777 0 0 1 0.690515,-0.952651 0.69740468,0.94647777 0 0 1 0.704219,0.933993"
     sodipodi:open="true"
     sodipodi:end="6.270043"
     sodipodi:start="0"
     sodipodi:ry="0.94647777"
     sodipodi:rx="0.69740468"
     sodipodi:cy="49.814957"
     sodipodi:cx="29.68412"
     sodipodi:type="arc"
     id="use4205"
     style="opacity:1;fill:#000000;fill-opacity:1;fill-rule:nonzero;stroke:none;stroke-width:0.34999999;stroke-linecap:butt;stroke-linejoin:bevel;stroke-miterlimit:4;stroke-dasharray:none;stroke-dashoffset:0;stroke-opacity:1" />
  <path
     style="opacity:1;fill:#000000;fill-opacity:1;fill-rule:nonzero;stroke:none;stroke-width:0.34999999;stroke-linecap:butt;stroke-linejoin:bevel;stroke-miterlimit:4;stroke-dasharray:none;stroke-dashoffset:0;stroke-opacity:1"
     id="use4209"
     sodipodi:type="arc"
     sodipodi:cx="18.924162"
     sodipodi:cy="74.124496"
     sodipodi:rx="0.69740468"
     sodipodi:ry="0.94647777"
     sodipodi:start="0"
     sodipodi:end="6.270043"
     sodipodi:open="true"
     d="m 19.621567,74.124496 a 0.69740468,0.94647777 0 0 1 -0.695114,0.946473 0.69740468,0.94647777 0 0 1 -0.699681,-0.940253 0.69740468,0.94647777 0 0 1 0.690516,-0.952651 0.69740468,0.94647777 0 0 1 0.704218,0.933993" />
  <path
     d="m 96.692247,84.550888 a 0.69740468,0.94647777 0 0 1 -0.695113,0.946473 0.69740468,0.94647777 0 0 1 -0.699681,-0.940254 0.69740468,0.94647777 0 0 1 0.690516,-0.952651 0.69740468,0.94647777 0 0 1 0.704218,0.933994"
     sodipodi:open="true"
     sodipodi:end="6.270043"
     sodipodi:start="0"
     sodipodi:ry="0.94647777"
     sodipodi:rx="0.69740468"
     sodipodi:cy="84.550888"
     sodipodi:cx="95.994843"
     sodipodi:type="arc"
     id="use4213"
     style="opacity:1;fill:#000000;fill-opacity:1;fill-rule:nonzero;stroke:none;stroke-width:0.34999999;stroke-linecap:butt;stroke-linejoin:bevel;stroke-miterlimit:4;stroke-dasharray:none;stroke-dashoffset:0;stroke-opacity:1" />
  <path
     style="opacity:1;fill:#000000;fill-opacity:1;fill-rule:nonzero;stroke:none;stroke-width:0.34999999;stroke-linecap:butt;stroke-linejoin:bevel;stroke-miterlimit:4;stroke-dasharray:none;stroke-dashoffset:0;stroke-opacity:1"
     id="use4217"
     sodipodi:type="arc"
     sodipodi:cx="59.361618"
     sodipodi:cy="36.223221"
     sodipodi:rx="0.69740468"
     sodipodi:ry="0.94647777"
     sodipodi:start="0"
     sodipodi:end="6.270043"
     sodipodi:open="true"
     d="m 60.059023,36.223221 a 0.69740468,0.94647777 0 0 1 -0.695114,0.946472 0.69740468,0.94647777 0 0 1 -0.699681,-0.940253 0.69740468,0.94647777 0 0 1 0.690516,-0.952651 0.69740468,0.94647777 0 0 1 0.704218,0.933993" />
  <path
     d="m 55.550318,14.947769 a 0.69740468,0.94647777 0 0 1 -0.695114,0.946473 0.69740468,0.94647777 0 0 1 -0.699681,-0.940253 0.69740468,0.94647777 0 0 1 0.690516,-0.952652 0.69740468,0.94647777 0 0 1 0.704218,0.933994"
     sodipodi:open="true"
     sodipodi:end="6.270043"
     sodipodi:start="0"
     sodipodi:ry="0.94647777"
     sodipodi:rx="0.69740468"
     sodipodi:cy="14.947769"
     sodipodi:cx="54.852913"
     sodipodi:type="arc"
     id="use4221"
     style="opacity:1;fill:#000000;fill-opacity:1;fill-rule:nonzero;stroke:none;stroke-width:0.34999999;stroke-linecap:butt;stroke-linejoin:bevel;stroke-miterlimit:4;stroke-dasharray:none;stroke-dashoffset:0;stroke-opacity:1" />
  <path
     style="color:#000000;clip-rule:nonzero;display:inline;overflow:visible;visibility:visible;opacity:1;isolation:auto;mix-blend-mode:normal;color-interpolation:sRGB;color-interpolation-filters:linearRGB;solid-color:#000000;solid-opacity:1;fill:none;fill-opacity:1;fill-rule:nonzero;stroke:#000000;stroke-width:0.64999998;stroke-linecap:butt;stroke-linejoin:bevel;stroke-miterlimit:4;stroke-dasharray:none;stroke-dashoffset:0;stroke-opacity:1;color-rendering:auto;image-rendering:auto;shape-rendering:auto;text-rendering:auto;enable-background:accumulate"
     d="m 103.182,79.784389 3.94512,-1.97255 2.81794,2.81794 c 0,0 0.28179,0.84538 0.28179,1.97255 0,1.12718 -1.97256,3.66333 -1.97256,3.66333 0,0 -1.69076,1.40897 -2.81794,0.56359 -1.12717,-0.84539 -1.12717,-1.69077 -2.25435,-1.69077 -1.12718,0 -3.09973,-1.12717 -2.53615,-2.25435 0.56359,-1.12718 2.53615,-3.09974 2.53615,-3.09974 z"
     id="path4225"
     inkscape:connector-curvature="0" />
  <path
     style="color:#000000;clip-rule:nonzero;display:inline;overflow:visible;visibility:visible;opacity:1;isolation:auto;mix-blend-mode:normal;color-interpolation:sRGB;color-interpolation-filters:linearRGB;solid-color:#000000;solid-opacity:1;fill:none;fill-opacity:1;fill-rule:nonzero;stroke:#000000;stroke-width:0.64999998;stroke-linecap:butt;stroke-linejoin:bevel;stroke-miterlimit:4;stroke-dasharray:none;stroke-dashoffset:0;stroke-opacity:1;color-rendering:auto;image-rendering:auto;shape-rendering:auto;text-rendering:auto;enable-background:accumulate"
     d="m 54.713424,15.112659 c 1.831661,3.09974 12.398938,6.48126 12.398938,6.48126 0,0 2.536146,-1.12717 0,0 -2.536147,1.12718 -19.725584,1.83167 -19.725584,1.83167"
     id="path4227"
     inkscape:connector-curvature="0" />
  <path
     style="color:#000000;clip-rule:nonzero;display:inline;overflow:visible;visibility:visible;opacity:1;isolation:auto;mix-blend-mode:normal;color-interpolation:sRGB;color-interpolation-filters:linearRGB;solid-color:#000000;solid-opacity:1;fill:none;fill-opacity:1;fill-rule:nonzero;stroke:#000000;stroke-width:0.64999998;stroke-linecap:butt;stroke-linejoin:bevel;stroke-miterlimit:4;stroke-dasharray:none;stroke-dashoffset:0;stroke-opacity:1;color-rendering:auto;image-rendering:auto;shape-rendering:auto;text-rendering:auto;enable-background:accumulate"
     d="m 67.112362,21.453029 c -1.127177,7.89023 1.40897,13.38521 -2.254353,16.06226 -3.663322,2.67704 -5.494984,-0.84538 -5.494984,-0.84538 0,0 -0.986279,7.60843 8.594719,23.10711 9.580997,15.49867 17.189437,23.10711 21.134553,25.92505 3.945112,2.81794 6.199472,-1.12718 6.199472,-1.12718 l 0,19.725591 0,0 0,0"
     id="path4229"
     inkscape:connector-curvature="0" />
  <path
     style="color:#000000;clip-rule:nonzero;display:inline;overflow:visible;visibility:visible;opacity:1;isolation:auto;mix-blend-mode:normal;color-interpolation:sRGB;color-interpolation-filters:linearRGB;solid-color:#000000;solid-opacity:1;fill:none;fill-opacity:1;fill-rule:nonzero;stroke:#000000;stroke-width:0.64999998;stroke-linecap:butt;stroke-linejoin:bevel;stroke-miterlimit:4;stroke-dasharray:none;stroke-dashoffset:0;stroke-opacity:1;color-rendering:auto;image-rendering:auto;shape-rendering:auto;text-rendering:auto;enable-background:accumulate"
     d="m 47.668572,23.707379 c 0,4.7905 0.845383,7.04485 -0.563588,9.01741 -1.40897,1.97256 -4.508704,-2.81794 -4.508704,-2.81794 0,0 -1.972559,9.29921 -3.663323,15.49867 -2.560246,9.63253 -5.863225,11.30146 -9.580998,4.22691 0,0 0,3.66332 -0.563588,15.49867 -0.563588,11.83535 -9.580997,9.15831 -9.580997,9.15831 l -0.563588,34.801571"
     id="path4231"
     inkscape:connector-curvature="0"
     sodipodi:nodetypes="cscccscc" />
  <text
     xml:space="preserve"
     style="font-style:normal;font-variant:normal;font-weight:300;font-stretch:normal;font-size:7.5px;line-height:125%;font-family:Seravek;-inkscape-font-specification:'Seravek Light';text-align:start;letter-spacing:0px;word-spacing:0px;writing-mode:lr-tb;text-anchor:start;fill:#000000;fill-opacity:1;stroke:none;stroke-width:1px;stroke-linecap:butt;stroke-linejoin:miter;stroke-opacity:1"
     x="2.0711453"
     y="41.007679"
     id="text4233"
     sodipodi:linespacing="125%"><tspan
       sodipodi:role="line"
       id="tspan4235"
       x="2.0711453"
       y="41.007679">New Route</tspan></text>
  <text
     xml:space="preserve"
     style="font-style:normal;font-variant:normal;font-weight:300;font-stretch:normal;font-size:7.5px;line-height:125%;font-family:Seravek;-inkscape-font-specification:'Seravek Light';text-align:start;letter-spacing:0px;word-spacing:0px;writing-mode:lr-tb;text-anchor:start;fill:#000000;fill-opacity:1;stroke:none;stroke-width:1px;stroke-linecap:butt;stroke-linejoin:miter;stroke-opacity:1"
     x="89.003899"
     y="40.119797"
     id="text4237"
     sodipodi:linespacing="125%"><tspan
       sodipodi:role="line"
       id="tspan4239"
       x="89.003899"
       y="40.119797">Old Route</tspan></text>
  <path
     style="color:#000000;clip-rule:nonzero;display:inline;overflow:visible;visibility:visible;opacity:1;isolation:auto;mix-blend-mode:normal;color-interpolation:sRGB;color-interpolation-filters:linearRGB;solid-color:#000000;solid-opacity:1;fill:none;fill-opacity:1;fill-rule:nonzero;stroke:#000000;stroke-width:0.75;stroke-linecap:butt;stroke-linejoin:bevel;stroke-miterlimit:4;stroke-dasharray:none;stroke-dashoffset:0;stroke-opacity:1;color-rendering:auto;image-rendering:auto;shape-rendering:auto;text-rendering:auto;enable-background:accumulate"
     d="m 96.489389,83.799959 8.594721,-5.07229 2.81794,-0.49314 2.25435,3.80422 -1.62031,3.87466 -2.3248,0.98628 -4.29736,-2.11345 -5.424541,-0.21135"
     id="path4241"
     inkscape:connector-curvature="0" />
  <path
     style="color:#000000;clip-rule:nonzero;display:inline;overflow:visible;visibility:visible;opacity:1;isolation:auto;mix-blend-mode:normal;color-interpolation:sRGB;color-interpolation-filters:linearRGB;solid-color:#000000;solid-opacity:1;fill:none;fill-opacity:1;fill-rule:nonzero;stroke:#000000;stroke-width:0.64999998;stroke-linecap:butt;stroke-linejoin:bevel;stroke-miterlimit:4;stroke-dasharray:none;stroke-dashoffset:0;stroke-opacity:1;color-rendering:auto;image-rendering:auto;shape-rendering:auto;text-rendering:auto;enable-background:accumulate"
     d="m 59.373628,35.817059 -1.494438,-4.7822 c 0,0 1.594067,-0.0996 0.896663,-0.79704 -0.697405,-0.6974 -1.594068,-0.79703 -1.594068,-0.79703 l -0.896663,0.39852 -0.09963,0.29888 1.793327,-0.0996 -0.298888,-1.09593 c 0,0 -0.797034,0 -1.195551,0.19926 -0.398517,0.19926 -0.597775,0 -0.498146,0.39852 0.09963,0.39852 0.199258,0.79703 0.597775,0.99629 0.398517,0.19926 1.39481,0 1.39481,0 0,0 0.697404,-1.49444 0.09963,-1.6937 -0.597775,-0.19925 -2.889248,0.19926 -2.889248,0.19926 0,0 -0.498146,0.39852 -0.298888,0.89667 0.199259,0.49814 1.29518,1.29518 1.29518,1.29518 l 0.498147,0.0996 2.191843,4.7822"
     id="path4243"
     inkscape:connector-curvature="0" />
  <text
     xml:space="preserve"
     style="font-style:italic;font-variant:normal;font-weight:normal;font-stretch:normal;font-size:12.5px;line-height:125%;font-family:'Bookman Old Style';-inkscape-font-specification:Sans;text-align:start;letter-spacing:0px;word-spacing:0px;writing-mode:lr-tb;text-anchor:start;fill:#000000;fill-opacity:1;stroke:none;stroke-width:1px;stroke-linecap:butt;stroke-linejoin:miter;stroke-opacity:1"
     x="12.149368"
     y="25.455612"
     id="text4245"
     sodipodi:linespacing="125%"><tspan
       sodipodi:role="line"
       id="tspan4247"
       x="12.149368"
       y="25.455612"
       style="font-style:normal;font-variant:normal;font-weight:300;font-stretch:normal;font-size:6.25px;font-family:Seravek;-inkscape-font-specification:'Seravek Light'">Lip of rock</tspan></text>
  <text
     xml:space="preserve"
     style="font-style:normal;font-variant:normal;font-weight:300;font-stretch:normal;font-size:6.25px;line-height:125%;font-family:Seravek;-inkscape-font-specification:'Seravek Light';text-align:center;letter-spacing:0px;word-spacing:0px;writing-mode:lr-tb;text-anchor:middle;fill:#000000;fill-opacity:1;stroke:none;stroke-width:1px;stroke-linecap:butt;stroke-linejoin:miter;stroke-opacity:1"
     x="106.90382"
     y="57.747208"
     id="text4249"
     sodipodi:linespacing="125%"><tspan
       sodipodi:role="line"
       id="tspan4251"
       x="107.5752"
       y="57.747208">bizarre </tspan><tspan
       sodipodi:role="line"
       x="106.90382"
       y="65.559708"
       id="tspan4257">sling rebelay</tspan></text>
  <text
     xml:space="preserve"
     style="font-style:normal;font-variant:normal;font-weight:300;font-stretch:normal;font-size:6.25px;line-height:125%;font-family:Seravek;-inkscape-font-specification:'Seravek Light';text-align:start;letter-spacing:0px;word-spacing:0px;writing-mode:lr-tb;text-anchor:start;fill:#000000;fill-opacity:1;stroke:none;stroke-width:1px;stroke-linecap:butt;stroke-linejoin:miter;stroke-opacity:1"
     x="32.473732"
     y="97.188675"
     id="text4253"
     sodipodi:linespacing="125%"><tspan
       sodipodi:role="line"
       id="tspan4255"
       x="32.473732"
       y="97.188675">waterfall</tspan></text>
  <path
     style="color:#000000;clip-rule:nonzero;display:inline;overflow:visible;visibility:visible;opacity:1;isolation:auto;mix-blend-mode:normal;color-interpolation:sRGB;color-interpolation-filters:linearRGB;solid-color:#000000;solid-opacity:1;fill:none;fill-opacity:1;fill-rule:nonzero;stroke:#000000;stroke-width:0.34999999;stroke-linecap:butt;stroke-linejoin:bevel;stroke-miterlimit:4;stroke-dasharray:none;stroke-dashoffset:0;stroke-opacity:1;marker-end:url(#marker4543);color-rendering:auto;image-rendering:auto;shape-rendering:auto;text-rendering:auto;enable-background:accumulate"
     d="m 99.823099,69.690999 -3.18813,11.557"
     id="path4259"
     inkscape:connector-curvature="0" />
  <path
     style="color:#000000;clip-rule:nonzero;display:inline;overflow:visible;visibility:visible;opacity:1;isolation:auto;mix-blend-mode:normal;color-interpolation:sRGB;color-interpolation-filters:linearRGB;solid-color:#000000;solid-opacity:1;fill:none;fill-opacity:1;fill-rule:nonzero;stroke:#000000;stroke-width:0.34999999;stroke-linecap:butt;stroke-linejoin:bevel;stroke-miterlimit:4;stroke-dasharray:none;stroke-dashoffset:0;stroke-opacity:1;marker-end:url(#Arrow1Mend);color-rendering:auto;image-rendering:auto;shape-rendering:auto;text-rendering:auto;enable-background:accumulate"
     d="M 88.664625,62.916219 62.362505,39.403709"
     id="path4261"
     inkscape:connector-curvature="0" />
</svg>
