<?xml version="1.0" encoding="UTF-8" standalone="no"?>
<!-- Created with Inkscape (http://www.inkscape.org/) -->

<svg
   xmlns:dc="http://purl.org/dc/elements/1.1/"
   xmlns:cc="http://creativecommons.org/ns#"
   xmlns:rdf="http://www.w3.org/1999/02/22-rdf-syntax-ns#"
   xmlns:svg="http://www.w3.org/2000/svg"
   xmlns="http://www.w3.org/2000/svg"
   xmlns:xlink="http://www.w3.org/1999/xlink"
   xmlns:sodipodi="http://sodipodi.sourceforge.net/DTD/sodipodi-0.dtd"
   xmlns:inkscape="http://www.inkscape.org/namespaces/inkscape"
   id="svg2"
   version="1.1"
   inkscape:version="0.91 r13725"
   width="280.11902"
   height="160.73454"
   viewBox="0 0 280.11902 160.73455"
   sodipodi:docname="extended_elevation_south.svg"
   inkscape:export-filename="/Users/AchilleTalon/Documents/GitHub/hollowmountain3/images/2015/tanguy-meridian-2015/extended_elevation_south.png"
   inkscape:export-xdpi="249.8"
   inkscape:export-ydpi="249.8">
  <metadata
     id="metadata8">
    <rdf:RDF>
      <cc:Work
         rdf:about="">
        <dc:format>image/svg+xml</dc:format>
        <dc:type
           rdf:resource="http://purl.org/dc/dcmitype/StillImage" />
        <dc:title></dc:title>
      </cc:Work>
    </rdf:RDF>
  </metadata>
  <defs
     id="defs6">
    <marker
       inkscape:stockid="Club"
       orient="auto"
       refY="0.0"
       refX="0.0"
       id="Club"
       style="overflow:visible"
       inkscape:isstock="true">
      <path
         id="path4548"
         d="M -1.5971367,-7.0977635 C -3.4863874,-7.0977635 -5.0235187,-5.5606321 -5.0235187,-3.6713813 C -5.0235187,-3.0147015 -4.7851656,-2.4444556 -4.4641095,-1.9232271 C -4.5028609,-1.8911157 -4.5437814,-1.8647646 -4.5806531,-1.8299921 C -5.2030765,-2.6849849 -6.1700514,-3.2751330 -7.3077730,-3.2751330 C -9.1970245,-3.2751331 -10.734155,-1.7380016 -10.734155,0.15124914 C -10.734155,2.0404999 -9.1970245,3.5776313 -7.3077730,3.5776313 C -6.3143268,3.5776313 -5.4391540,3.1355702 -4.8137404,2.4588126 C -4.9384274,2.8137041 -5.0235187,3.1803000 -5.0235187,3.5776313 C -5.0235187,5.4668819 -3.4863874,7.0040135 -1.5971367,7.0040135 C 0.29211394,7.0040135 1.8292454,5.4668819 1.8292454,3.5776313 C 1.8292454,2.7842354 1.5136868,2.0838028 1.0600576,1.5031550 C 2.4152718,1.7663868 3.7718375,2.2973711 4.7661444,3.8340272 C 4.0279463,3.0958289 3.5540908,1.7534117 3.5540908,-0.058529361 L 2.9247554,-0.10514681 L 3.5074733,-0.12845553 C 3.5074733,-1.9403966 3.9580199,-3.2828138 4.6962183,-4.0210121 C 3.7371277,-2.5387813 2.4390549,-1.9946496 1.1299838,-1.7134486 C 1.5341802,-2.2753578 1.8292454,-2.9268556 1.8292454,-3.6713813 C 1.8292454,-5.5606319 0.29211394,-7.0977635 -1.5971367,-7.0977635 z "
         style="fill-rule:evenodd;stroke:#000000;stroke-width:0.74587913pt;stroke-opacity:1;fill:#000000;fill-opacity:1"
         transform="scale(0.6)" />
    </marker>
    <marker
       inkscape:stockid="Arrow1Mend"
       orient="auto"
       refY="0.0"
       refX="0.0"
       id="Arrow1Mend"
       style="overflow:visible;"
       inkscape:isstock="true">
      <path
         id="path4328"
         d="M 0.0,0.0 L 5.0,-5.0 L -12.5,0.0 L 5.0,5.0 L 0.0,0.0 z "
         style="fill-rule:evenodd;stroke:#000000;stroke-width:1pt;stroke-opacity:1;fill:#000000;fill-opacity:1"
         transform="scale(0.4) rotate(180) translate(10,0)" />
    </marker>
    <marker
       inkscape:stockid="Arrow1Lend"
       orient="auto"
       refY="0.0"
       refX="0.0"
       id="Arrow1Lend"
       style="overflow:visible;"
       inkscape:isstock="true">
      <path
         id="path4322"
         d="M 0.0,0.0 L 5.0,-5.0 L -12.5,0.0 L 5.0,5.0 L 0.0,0.0 z "
         style="fill-rule:evenodd;stroke:#000000;stroke-width:1pt;stroke-opacity:1;fill:#000000;fill-opacity:1"
         transform="scale(0.8) rotate(180) translate(12.5,0)" />
    </marker>
  </defs>
  <sodipodi:namedview
     pagecolor="#ffffff"
     bordercolor="#666666"
     borderopacity="1"
     objecttolerance="10"
     gridtolerance="10"
     guidetolerance="10"
     inkscape:pageopacity="0"
     inkscape:pageshadow="2"
     inkscape:window-width="1440"
     inkscape:window-height="775"
     id="namedview4"
     showgrid="false"
     inkscape:zoom="2.75"
     inkscape:cx="158.36822"
     inkscape:cy="44.460527"
     inkscape:window-x="0"
     inkscape:window-y="1"
     inkscape:window-maximized="1"
     inkscape:current-layer="svg2"
     fit-margin-top="0"
     fit-margin-left="0"
     fit-margin-right="0"
     fit-margin-bottom="0" />
  <image
     sodipodi:absref="/Users/AchilleTalon/Documents/GitHub/hollowmountain3/images/2015/tanguy-meridian-2015/extended_elevation_south.jpg"
     xlink:href="extended_elevation_south.jpg"
     y="-41.818409"
     x="335.27274"
     id="image10"
     preserveAspectRatio="none"
     height="212.73454"
     width="300.11902" />
  <path
     style="color:#000000;clip-rule:nonzero;display:inline;overflow:visible;visibility:visible;opacity:1;isolation:auto;mix-blend-mode:normal;color-interpolation:sRGB;color-interpolation-filters:linearRGB;solid-color:#000000;solid-opacity:1;fill:none;fill-opacity:1;fill-rule:nonzero;stroke:#000000;stroke-width:0.64999998;stroke-linecap:butt;stroke-linejoin:bevel;stroke-miterlimit:4;stroke-dasharray:none;stroke-dashoffset:0;stroke-opacity:1;color-rendering:auto;image-rendering:auto;shape-rendering:auto;text-rendering:auto;enable-background:accumulate"
     d="m 18.677083,132.02719 c 0,0 4.50788,-0.8091 4.854639,-1.04028 0.34676,-0.23117 1.7338,-0.80911 2.42732,-0.9247 0.693521,-0.11558 4.161119,-1.38703 4.739053,-1.50262 0.577933,-0.11557 0.462346,-0.11557 1.38704,-0.46235 0.924693,-0.34676 1.618212,-0.57794 2.311733,-1.27145 0.693519,-0.69351 1.849386,-2.19614 1.849386,-2.19614 l 1.964973,-2.42732 3.583185,-2.19616 0.809107,-0.34675 c 0,0 6.010506,-1.7338 6.9352,-3.1209 0.924692,-1.38705 1.618212,-2.77409 1.733799,-3.23643 0.115588,-0.46235 0.346759,-1.96499 0.462346,-2.65851 0.115588,-0.69352 0.69352,-4.16114 0.69352,-4.16114 l -0.115587,-1.61823 c 0,0 0.924693,-1.15586 1.387039,-1.38704 0.462346,-0.23116 1.618213,-0.57793 2.08056,-0.69352 0.462346,-0.11558 4.161119,-2.19615 4.161119,-2.65851 0,-0.462357 0.115588,-0.924697 0.115588,-0.924697 0,0 0.809107,-3.929961 0.924693,-4.507901 0.115588,-0.577933 0.115588,-1.618216 0.34676,-2.427329 0.231173,-0.809103 0.577933,-2.427326 0.809107,-2.889679 0.231173,-0.46234 0.231173,-1.502623 0.924692,-1.618203 0.693521,-0.11558 1.964974,-0.346773 2.542907,-0.346773 0.577933,0 1.387039,-0.34676 1.964973,-0.23117 0.577933,0.11557 1.618213,-0.577933 1.964972,0 0.346761,0.577943 1.04028,1.849396 1.04028,2.311736 0,0 1.964974,1.502636 2.77408,1.502636 0.809107,0 3.005253,-0.462343 3.814359,-0.809103 0.809107,-0.34677 3.005254,-1.040283 3.4676,-1.155873 0.462346,-0.11558 2.889666,-0.809123 3.352013,-1.040283 0.462346,-0.23117 2.542906,-2.889679 2.542906,-3.236439 0,-0.346773 -0.115588,-0.924693 0,-1.964976 0.115588,-1.040293 0.462346,-3.583212 0.577933,-4.276725 0.115588,-0.69351 0.346759,-2.427326 0.346759,-2.427326 l 0.231175,-1.618226 c 0,0 -0.115588,-0.34677 0.693519,-0.57793 0.809107,-0.23118 2.311733,-0.462353 2.774079,-0.577943 0.462347,-0.11558 2.311737,0.23117 2.311737,0.23117 0,0 0.23117,-0.11557 0.69351,0.693523 0.46235,0.809123 0.46235,3.005279 0.46235,4.276732 0,1.271456 0.23117,6.126111 0.34676,6.588461 0.11559,0.46234 0.23117,2.196146 0.23117,2.542919 0,0.34676 0.46235,1.387043 1.15587,1.387043 0.69352,0 2.65849,-0.462353 3.12084,-0.462353 0.46235,0 4.970233,0 5.779333,-0.11558 0.80911,-0.11557 5.31699,-0.57792 5.31699,-0.57792 0,0 1.7338,-0.11558 2.31173,-0.693533 0.57793,-0.577933 1.61821,-3.005259 2.08056,-3.467609 0.46235,-0.462353 4.62347,-5.779358 4.85464,-6.241691 0.23117,-0.46237 1.50263,-4.045572 2.08056,-4.739092 0.57793,-0.693533 3.12084,-3.005279 4.16112,-4.854675 1.04028,-1.849385 2.08056,-3.698772 2.65849,-4.045532 0.57793,-0.34676 3.12084,-1.849386 3.4676,-2.08056 0.34676,-0.231173 1.84939,-3.352012 1.84939,-3.352012 0,0 0.69351,-0.924693 1.27145,-0.924693 0.57794,0 2.42732,-0.577933 3.00526,-0.577933 0.57792,0 1.96496,0 4.04552,0.346759 2.08057,0.34676 3.69878,-0.115587 4.62347,-0.115587 0.92469,0 5.43258,1.155866 5.89492,1.502626 0.46235,0.346759 5.43257,6.588438 5.77934,7.397545 0.34675,0.809106 2.31173,4.739076 2.65849,5.432596 0.34675,0.693523 3.69877,6.704061 3.81436,7.050821 0.11557,0.346763 1.6182,3.929962 1.6182,3.929962 0,0 1.38704,2.427319 1.8494,3.120839 0.46233,0.693533 1.04027,1.502636 1.84938,1.964986 0.80911,0.462353 1.50262,1.502636 3.58319,1.271456 2.08056,-0.231173 3.81436,-0.809103 4.50788,-0.809103 0.69351,0 1.04027,-0.462353 2.31173,0.11557 1.27145,0.577953 5.66375,0.577953 5.66375,0.577953 l 1.50263,0 c 0,0 2.77406,-0.115583 2.88965,0.57793 0.11558,0.693523 1.61822,2.196156 2.54291,2.658499 0.9247,0.46235 3.69877,1.618213 4.50789,1.618213 0.8091,0 1.38704,-0.34676 2.77408,0 1.38703,0.346773 4.73905,2.080576 5.20138,2.427329 0.46236,0.34676 3.46761,3.005275 3.81436,3.583198 0.34677,0.577947 1.15588,3.583227 1.27146,4.045567 0.11557,0.46235 1.38704,2.08058 1.84939,2.31174 0.46235,0.23118 0.8091,0.57794 2.31173,0.80911 1.50263,0.23118 2.88967,0.23118 2.88967,0.23118 0,0 0.57793,1.73381 1.27145,2.65851 0.69352,0.92469 2.31173,5.31699 2.54291,5.77934 0.23117,0.46236 1.61822,3.23649 1.7338,3.81443 0.11558,0.57794 2.08056,5.66375 2.08056,5.66375 l 1.7338,3.69877 c 0,0 0.34675,0.57793 -0.9247,0.92469 -1.27145,0.34677 -2.54291,0.92469 -3.23642,0.92469 -0.69353,0 -2.77408,0.11558 -2.77408,0.11558"
     id="path4142"
     inkscape:connector-curvature="0" />
  <path
     style="color:#000000;clip-rule:nonzero;display:inline;overflow:visible;visibility:visible;opacity:1;isolation:auto;mix-blend-mode:normal;color-interpolation:sRGB;color-interpolation-filters:linearRGB;solid-color:#000000;solid-opacity:1;fill:none;fill-opacity:1;fill-rule:nonzero;stroke:#000000;stroke-width:0.64999998;stroke-linecap:butt;stroke-linejoin:bevel;stroke-miterlimit:4;stroke-dasharray:none;stroke-dashoffset:0;stroke-opacity:1;color-rendering:auto;image-rendering:auto;shape-rendering:auto;text-rendering:auto;enable-background:accumulate"
     d="m 218.64198,135.03234 c 2.19615,0.46234 7.05079,1.38703 9.01576,0.8091 1.96497,-0.57794 3.81435,-0.92469 5.08581,-1.15587 1.27145,-0.23117 5.54816,-0.80911 6.81961,-1.04027 1.27146,-0.23118 4.73905,-1.04029 5.66376,-1.04029 0.92469,0 2.65848,-0.46234 3.12083,-0.57793 0.46235,-0.11558 1.7338,-0.23118 1.7338,-0.23118"
     id="path4146"
     inkscape:connector-curvature="0" />
  <path
     style="color:#000000;clip-rule:nonzero;display:inline;overflow:visible;visibility:visible;opacity:1;isolation:auto;mix-blend-mode:normal;color-interpolation:sRGB;color-interpolation-filters:linearRGB;solid-color:#000000;solid-opacity:1;fill:none;fill-opacity:1;fill-rule:nonzero;stroke:#000000;stroke-width:0.64999998;stroke-linecap:butt;stroke-linejoin:bevel;stroke-miterlimit:4;stroke-dasharray:none;stroke-dashoffset:0;stroke-opacity:1;color-rendering:auto;image-rendering:auto;shape-rendering:auto;text-rendering:auto;enable-background:accumulate"
     d="m 247.19188,125.43874 c 0,0 -5.08581,1.04028 -5.89491,1.38704 -0.80912,0.34676 -3.81436,0.69351 -4.73906,0.69351 -0.92469,0 -1.38704,0.23118 -2.42732,-0.11557 -1.04028,-0.34676 -1.38704,-0.69353 -1.73379,-1.38704 -0.34677,-0.69353 -0.46235,-1.04029 -0.92471,-2.77408 -0.46233,-1.73381 -0.8091,-2.77409 -1.27145,-4.50789 -0.46234,-1.73379 -0.69351,-2.65855 -1.50261,-4.04559 -0.80912,-1.38704 -1.27146,-1.61822 -1.8494,-3.23645 -0.57794,-1.61821 -1.27145,-2.5429 -1.38704,-3.4676 -0.11557,-0.92469 -0.46235,-3.12087 -0.46235,-3.5832 0,-0.46236 -0.92469,-3.12087 -1.73379,-3.58322 -0.80912,-0.46234 -3.00526,-0.924697 -3.00526,-0.924697 0,0 -2.19614,-3.698788 -2.19614,-4.161138 0,-0.462343 1.27145,-2.658499 0.92469,-3.120852 -0.34676,-0.46235 -2.08056,-1.964983 -3.4676,-2.311736 -1.38704,-0.34676 -3.35201,-1.849396 -7.51313,-1.849396 -4.16112,0 -6.9352,0.346763 -7.97548,0.462353 -1.04028,0.11558 -1.50263,0.11558 -2.65849,-0.346763 -1.15587,-0.46235 -2.88967,-2.658506 -2.88967,-2.658506 0,0 -3.23642,-0.924693 -3.35201,-1.733796 -0.11558,-0.809113 -1.38704,-1.964986 -1.38704,-1.964986 0,0 -0.11558,-0.693513 -0.23118,-1.040283 -0.11557,-0.34676 0,-1.271453 0,-1.271453"
     id="path4148"
     inkscape:connector-curvature="0" />
  <path
     style="color:#000000;clip-rule:nonzero;display:inline;overflow:visible;visibility:visible;opacity:1;isolation:auto;mix-blend-mode:normal;color-interpolation:sRGB;color-interpolation-filters:linearRGB;solid-color:#000000;solid-opacity:1;fill:none;fill-opacity:1;fill-rule:nonzero;stroke:#000000;stroke-width:0.64999998;stroke-linecap:butt;stroke-linejoin:bevel;stroke-miterlimit:4;stroke-dasharray:none;stroke-dashoffset:0;stroke-opacity:1;color-rendering:auto;image-rendering:auto;shape-rendering:auto;text-rendering:auto;enable-background:accumulate"
     d="m 184.19717,80.012997 0.23116,1.964976 -0.34675,1.155863 c 0,0 -1.04029,0.693533 -1.38704,0.924703 -0.34677,0.23117 -1.15587,0.23117 -2.19616,0.23117 -1.04028,0 -2.31173,-0.11558 -3.46759,-0.924693 -1.15587,-0.809103 -3.58319,-2.542916 -4.39229,-3.120849 -0.80911,-0.57793 -3.00526,-3.698782 -3.5832,-5.663778 -0.57792,-1.964976 -2.77406,-6.588468 -2.77406,-6.588468 0,0 -1.0403,-4.623468 -1.15587,-5.432575 -0.11558,-0.809107 -3.35202,-6.472852 -3.81436,-7.166373 -0.46235,-0.693519 -2.42733,-2.427318 -3.00526,-3.583185 -0.57794,-1.155866 -1.38704,-1.964973 -2.88967,-2.427319 -1.50263,-0.462348 -3.58318,-0.693521 -3.92994,-1.155867 -0.34675,-0.462347 -0.80911,-1.04028 -0.92469,-1.849387 -0.11558,-0.809106 0.34676,-2.311732 0.69351,-2.658493 0.34676,-0.346759 1.27145,-1.964972 2.08057,-1.964972 0.8091,0 2.31173,-0.462347 3.46759,-0.462347 1.15587,0 2.54291,-0.231173 3.00526,0.115587 0.46234,0.346761 1.04028,0.924694 1.27145,1.618214 0.23118,0.69352 0.46234,1.38704 0.46234,1.38704"
     id="path4150"
     inkscape:connector-curvature="0" />
  <path
     style="color:#000000;clip-rule:nonzero;display:inline;overflow:visible;visibility:visible;opacity:1;isolation:auto;mix-blend-mode:normal;color-interpolation:sRGB;color-interpolation-filters:linearRGB;solid-color:#000000;solid-opacity:1;fill:none;fill-opacity:1;fill-rule:nonzero;stroke:#000000;stroke-width:0.64999998;stroke-linecap:butt;stroke-linejoin:bevel;stroke-miterlimit:4;stroke-dasharray:none;stroke-dashoffset:0;stroke-opacity:1;color-rendering:auto;image-rendering:auto;shape-rendering:auto;text-rendering:auto;enable-background:accumulate"
     d="m 163.62274,41.75375 c 0,0 -1.96498,-2.311733 -2.65849,-2.542906 -0.69353,-0.231173 -6.0105,-0.346761 -6.58844,-0.346761 -0.57794,0 -0.57794,-2.196145 -3.23642,0.462347 -2.6585,2.658493 -3.12085,3.4676 -3.23644,4.276706 -0.11557,0.809107 -0.34676,1.04028 -0.46235,2.311733 -0.11557,1.271453 -0.11557,0.809107 -0.23116,1.271453 -0.11558,0.462346 0.11557,0.924694 -1.04029,1.271453 -1.15587,0.34676 -1.04028,0.809107 -2.77407,0.693521 -1.73381,-0.115588 -2.77408,-0.231175 -3.69877,-0.115588 -0.9247,0.115588 -1.61822,1.271453 -2.31175,-0.34676 -0.69351,-1.618212 -1.6182,-3.814359 -1.96496,-4.392292 -0.34677,-0.577934 -1.27146,-1.387039 -1.27146,-1.387039"
     id="path4152"
     inkscape:connector-curvature="0" />
  <path
     style="color:#000000;clip-rule:nonzero;display:inline;overflow:visible;visibility:visible;opacity:1;isolation:auto;mix-blend-mode:normal;color-interpolation:sRGB;color-interpolation-filters:linearRGB;solid-color:#000000;solid-opacity:1;fill:none;fill-opacity:1;fill-rule:nonzero;stroke:#000000;stroke-width:0.64999998;stroke-linecap:butt;stroke-linejoin:bevel;stroke-miterlimit:4;stroke-dasharray:none;stroke-dashoffset:0;stroke-opacity:1;color-rendering:auto;image-rendering:auto;shape-rendering:auto;text-rendering:auto;enable-background:accumulate"
     d="m 129.87144,44.643416 c 0,0 1.61821,2.311733 1.84938,2.658493 0.23118,0.346759 0.34676,2.311733 0.34676,3.12084 0,0.809105 0,1.271453 -0.57793,1.733799 -0.57793,0.462346 -6.12609,3.698773 -6.47285,4.392292 -0.34676,0.69352 -0.9247,2.08056 -1.84939,3.4676 -0.92469,1.387039 -3.4676,7.397545 -5.2014,8.900174 -1.7338,1.502633 -6.70402,10.51844 -7.05078,10.749623 -0.34676,0.23117 0.23117,-0.115593 -1.04028,0.8091 -1.27146,0.924703 -1.61822,1.271456 -2.77408,1.733806 -1.15587,0.462353 -2.54291,0.693533 -3.35202,0.809103 -0.8091,0.11558 -2.42731,0.23118 -2.88966,-1.964966 -0.46235,-2.196156 -0.57793,-1.964976 -0.46235,-3.005269 0.11559,-1.040283 0.23118,-2.196146 0.23118,-3.698792 0,-1.502633 -0.23118,-3.120849 -0.46235,-3.814382 -0.231173,-0.69352 -1.964973,-4.045545 -2.427323,-4.161132 -0.46235,-0.115588 -1.61821,0 -2.31173,0.115588 -0.69352,0.115588 -2.42732,0.577934 -3.12084,0.693521 -0.69352,0.115587 -1.849386,0.231173 -2.542906,0.231173 -0.69352,0 -5.316986,0.693524 -5.779332,1.271457 -0.462347,0.57793 -1.04028,1.618223 -1.155867,2.311746 -0.115587,0.693523 -0.115587,1.618223 0,2.080566 0.115588,0.46235 -1.502626,5.894958 -1.502626,5.894958 l 0.231173,1.387043 c 0,0 -0.115588,0.809103 -0.462347,1.271463 -0.34676,0.462333 -2.427319,2.196149 -2.889666,2.542909 -0.462346,0.34675 -0.693519,0.577933 -1.38704,0.809103 -0.693519,0.23118 -1.271453,0.924693 -1.849385,0.46235 -0.577934,-0.46235 -2.08056,-3.583199 -2.08056,-3.583199 0,0 -0.577933,-1.618216 -1.04028,-1.618216 -0.462347,0 0.69352,-0.11557 -1.502627,0.11558 -2.196146,0.23116 -2.311733,0.346753 -3.698772,0.693513 -1.38704,0.34677 -3.698773,0.809113 -4.85464,1.271463 -1.155866,0.462353 -3.814359,3.005259 -3.814359,3.005259 0,0 -1.849386,-0.57793 -1.849386,0.11558 0,0.693513 0,3.467612 -0.115588,3.929952 -0.115587,0.462353 -0.462347,3.120849 -0.809107,3.583202 -0.346759,0.46234 -2.774079,4.970241 -3.467599,5.316994 -0.69352,0.34676 -0.924693,0.69353 -1.7338,0.69353 -0.809107,0 -2.658492,0.462353 -2.658492,0.462353 0,0 0.462346,0 -0.231173,0.34676 -0.693521,0.346767 -1.155867,1.387047 -1.38704,1.849397 -0.231174,0.46235 -0.577934,8.0911 -0.924694,8.78463 -0.346759,0.69352 -0.809107,2.31174 -1.271453,2.77409 -0.462347,0.46234 -0.69352,0.46234 -1.964973,1.15587 -1.271453,0.69351 -2.311733,1.15586 -3.698773,1.7338 -1.38704,0.578 -2.658493,2.08063 -3.467599,2.65855 -0.809107,0.57794 -1.502627,1.15587 -2.427319,1.61822 -0.924694,0.46235 -1.271453,1.38704 -1.618214,1.84939 -0.34676,0.46234 -1.155865,1.96497 -1.618213,2.19615 -0.462346,0.23117 -1.38704,0.8091 -2.196146,0.92469 -0.809106,0.11557 -2.889666,0.57793 -3.467599,0.57793 -0.577934,0 -5.894919,0 -5.894919,0"
     id="path4154"
     inkscape:connector-curvature="0" />
  <text
     xml:space="preserve"
     style="font-style:normal;font-variant:normal;font-weight:normal;font-stretch:normal;font-size:7.5px;line-height:125%;font-family:Seravek;-inkscape-font-specification:Seravek;text-align:start;letter-spacing:0px;word-spacing:0px;writing-mode:lr-tb;text-anchor:start;fill:#000000;fill-opacity:1;stroke:none;stroke-width:1px;stroke-linecap:butt;stroke-linejoin:miter;stroke-opacity:1"
     x="87.990944"
     y="15.659568"
     id="text4156"
     sodipodi:linespacing="125%"><tspan
       sodipodi:role="line"
       id="tspan4158"
       x="87.990944"
       y="15.659568">For navigational reassurance</tspan></text>
  <text
     sodipodi:linespacing="125%"
     id="use4160"
     y="41.593983"
     x="86.068672"
     style="font-style:normal;font-variant:normal;font-weight:300;font-stretch:normal;font-size:5px;line-height:125%;font-family:Seravek;-inkscape-font-specification:'Seravek Light';text-align:start;letter-spacing:0px;word-spacing:0px;writing-mode:lr-tb;text-anchor:start;fill:#000000;fill-opacity:1;stroke:none;stroke-width:1px;stroke-linecap:butt;stroke-linejoin:miter;stroke-opacity:1"
     xml:space="preserve"><tspan
       y="41.593983"
       x="86.068672"
       id="tspan4164"
       sodipodi:role="line"
       style="font-size:5px">unpushed climb</tspan></text>
  <text
     xml:space="preserve"
     style="font-style:italic;font-variant:normal;font-weight:normal;font-stretch:normal;font-size:5px;line-height:125%;font-family:'Bookman Old Style';-inkscape-font-specification:Sans;text-align:start;letter-spacing:0px;word-spacing:0px;writing-mode:lr-tb;text-anchor:start;fill:#000000;fill-opacity:1;stroke:none;stroke-width:1px;stroke-linecap:butt;stroke-linejoin:miter;stroke-opacity:1"
     x="150.56821"
     y="33.535179"
     id="text4166"
     sodipodi:linespacing="125%"><tspan
       sodipodi:role="line"
       id="tspan4168"
       x="150.56821"
       y="33.535179" /></text>
  <text
     xml:space="preserve"
     style="font-style:normal;font-variant:normal;font-weight:300;font-stretch:normal;font-size:5px;line-height:125%;font-family:Seravek;-inkscape-font-specification:'Seravek Light';text-align:start;letter-spacing:0px;word-spacing:0px;writing-mode:lr-tb;text-anchor:start;fill:#000000;fill-opacity:1;stroke:none;stroke-width:1px;stroke-linecap:butt;stroke-linejoin:miter;stroke-opacity:1"
     x="163.62733"
     y="37.77961"
     id="use4170"
     sodipodi:linespacing="125%"><tspan
       style="font-size:5px"
       sodipodi:role="line"
       id="tspan4174"
       x="163.62733"
       y="37.77961">crawl or climb</tspan></text>
  <text
     sodipodi:linespacing="125%"
     id="use4176"
     y="34.830059"
     x="122.9889"
     style="font-style:normal;font-variant:normal;font-weight:300;font-stretch:normal;font-size:5px;line-height:125%;font-family:Seravek;-inkscape-font-specification:'Seravek Light';text-align:start;letter-spacing:0px;word-spacing:0px;writing-mode:lr-tb;text-anchor:start;fill:#000000;fill-opacity:1;stroke:none;stroke-width:1px;stroke-linecap:butt;stroke-linejoin:miter;stroke-opacity:1"
     xml:space="preserve"><tspan
       y="34.830059"
       x="122.9889"
       id="tspan4180"
       sodipodi:role="line"
       style="font-size:7.5px">Jetsteam</tspan></text>
  <text
     xml:space="preserve"
     style="font-style:italic;font-variant:normal;font-weight:normal;font-stretch:normal;font-size:12.5px;line-height:125%;font-family:'Bookman Old Style';-inkscape-font-specification:Sans;text-align:start;letter-spacing:0px;word-spacing:0px;writing-mode:lr-tb;text-anchor:start;fill:#000000;fill-opacity:1;stroke:none;stroke-width:1px;stroke-linecap:butt;stroke-linejoin:miter;stroke-opacity:1"
     x="20.500462"
     y="138.72189"
     id="text4182"
     sodipodi:linespacing="125%"><tspan
       sodipodi:role="line"
       id="tspan4184"
       x="20.500462"
       y="138.72189"
       style="font-style:normal;font-variant:normal;font-weight:300;font-stretch:normal;font-size:7.5px;font-family:Seravek;-inkscape-font-specification:'Seravek Light'">Jericho</tspan><tspan
       sodipodi:role="line"
       x="20.500462"
       y="148.09689"
       id="tspan4186"
       style="font-style:normal;font-variant:normal;font-weight:300;font-stretch:normal;font-size:5px;font-family:Seravek;-inkscape-font-specification:'Seravek Light'" /></text>
  <text
     xml:space="preserve"
     style="font-style:normal;font-variant:normal;font-weight:300;font-stretch:normal;font-size:5px;line-height:125%;font-family:Seravek;-inkscape-font-specification:'Seravek Light';text-align:start;letter-spacing:0px;word-spacing:0px;writing-mode:lr-tb;text-anchor:start;fill:#000000;fill-opacity:1;stroke:none;stroke-width:1px;stroke-linecap:butt;stroke-linejoin:miter;stroke-opacity:1"
     x="30.013073"
     y="91.018059"
     id="text4188"
     sodipodi:linespacing="125%"><tspan
       sodipodi:role="line"
       id="tspan4190"
       x="30.013073"
       y="91.018059">two hangs</tspan></text>
  <text
     xml:space="preserve"
     style="font-style:normal;font-variant:normal;font-weight:300;font-stretch:normal;font-size:5px;line-height:125%;font-family:Seravek;-inkscape-font-specification:'Seravek Light';text-align:start;letter-spacing:0px;word-spacing:0px;writing-mode:lr-tb;text-anchor:start;fill:#000000;fill-opacity:1;stroke:none;stroke-width:1px;stroke-linecap:butt;stroke-linejoin:miter;stroke-opacity:1"
     x="70.979858"
     y="95.377258"
     id="text4192"
     sodipodi:linespacing="125%"><tspan
       sodipodi:role="line"
       id="tspan4194"
       x="70.979858"
       y="95.377258">creature</tspan><tspan
       sodipodi:role="line"
       x="70.979858"
       y="101.62726"
       id="tspan4196">corpse pit</tspan></text>
  <text
     sodipodi:linespacing="125%"
     id="use4217"
     y="75.01796"
     x="125.4676"
     style="font-style:normal;font-variant:normal;font-weight:300;font-stretch:normal;font-size:5px;line-height:125%;font-family:Seravek;-inkscape-font-specification:'Seravek Light';text-align:start;letter-spacing:0px;word-spacing:0px;writing-mode:lr-tb;text-anchor:start;fill:#000000;fill-opacity:1;stroke:none;stroke-width:1px;stroke-linecap:butt;stroke-linejoin:miter;stroke-opacity:1"
     xml:space="preserve"><tspan
       y="75.01796"
       x="125.4676"
       id="tspan4221"
       sodipodi:role="line">really loose</tspan><tspan
       y="81.26796"
       x="125.4676"
       sodipodi:role="line"
       id="tspan4229">slope</tspan></text>
  <text
     xml:space="preserve"
     style="font-style:normal;font-variant:normal;font-weight:300;font-stretch:normal;font-size:5px;line-height:125%;font-family:Seravek;-inkscape-font-specification:'Seravek Light';text-align:start;letter-spacing:0px;word-spacing:0px;writing-mode:lr-tb;text-anchor:start;fill:#000000;fill-opacity:1;stroke:none;stroke-width:1px;stroke-linecap:butt;stroke-linejoin:miter;stroke-opacity:1"
     x="130.37672"
     y="77.018066"
     id="use4223"
     sodipodi:linespacing="125%"><tspan
       sodipodi:role="line"
       id="tspan4227"
       x="130.37672"
       y="77.018066" /></text>
  <text
     xml:space="preserve"
     style="font-style:normal;font-variant:normal;font-weight:300;font-stretch:normal;font-size:5px;line-height:125%;font-family:Seravek;-inkscape-font-specification:'Seravek Light';text-align:start;letter-spacing:0px;word-spacing:0px;writing-mode:lr-tb;text-anchor:start;fill:#000000;fill-opacity:1;stroke:none;stroke-width:1px;stroke-linecap:butt;stroke-linejoin:miter;stroke-opacity:1"
     x="169.28581"
     y="60.472404"
     id="use4231"
     sodipodi:linespacing="125%"><tspan
       sodipodi:role="line"
       id="tspan4235"
       x="169.28581"
       y="60.472404">really loose</tspan><tspan
       id="tspan4237"
       sodipodi:role="line"
       x="169.28581"
       y="66.722404">mud</tspan></text>
  <text
     sodipodi:linespacing="125%"
     id="use4239"
     y="99.018059"
     x="169.10399"
     style="font-style:normal;font-variant:normal;font-weight:300;font-stretch:normal;font-size:5px;line-height:125%;font-family:Seravek;-inkscape-font-specification:'Seravek Light';text-align:start;letter-spacing:0px;word-spacing:0px;writing-mode:lr-tb;text-anchor:start;fill:#000000;fill-opacity:1;stroke:none;stroke-width:1px;stroke-linecap:butt;stroke-linejoin:miter;stroke-opacity:1"
     xml:space="preserve"><tspan
       y="99.018059"
       x="169.10399"
       id="tspan4243"
       sodipodi:role="line">boulder choke</tspan><tspan
       y="105.26806"
       x="169.10399"
       sodipodi:role="line"
       id="tspan4245">now crawl</tspan></text>
  <text
     xml:space="preserve"
     style="font-style:normal;font-variant:normal;font-weight:300;font-stretch:normal;font-size:5px;line-height:125%;font-family:Seravek;-inkscape-font-specification:'Seravek Light';text-align:start;letter-spacing:0px;word-spacing:0px;writing-mode:lr-tb;text-anchor:start;fill:#000000;fill-opacity:1;stroke:none;stroke-width:1px;stroke-linecap:butt;stroke-linejoin:miter;stroke-opacity:1"
     x="188.38641"
     y="77.626198"
     id="text4251"
     sodipodi:linespacing="125%"><tspan
       sodipodi:role="line"
       id="tspan4253"
       x="188.38641"
       y="77.626198">a bit loose</tspan></text>
  <text
     xml:space="preserve"
     style="font-style:normal;font-variant:normal;font-weight:300;font-stretch:normal;font-size:5px;line-height:125%;font-family:Seravek;-inkscape-font-specification:'Seravek Light';text-align:start;letter-spacing:0px;word-spacing:0px;writing-mode:lr-tb;text-anchor:start;fill:#000000;fill-opacity:1;stroke:none;stroke-width:1px;stroke-linecap:butt;stroke-linejoin:miter;stroke-opacity:1"
     x="212.93185"
     y="85.444473"
     id="text4255"
     sodipodi:linespacing="125%"><tspan
       sodipodi:role="line"
       id="tspan4257"
       x="212.93185"
       y="85.444473">lovely</tspan></text>
  <text
     xml:space="preserve"
     style="font-style:normal;font-variant:normal;font-weight:300;font-stretch:normal;font-size:5px;line-height:125%;font-family:Seravek;-inkscape-font-specification:'Seravek Light';text-align:start;letter-spacing:0px;word-spacing:0px;writing-mode:lr-tb;text-anchor:start;fill:#000000;fill-opacity:1;stroke:none;stroke-width:1px;stroke-linecap:butt;stroke-linejoin:miter;stroke-opacity:1"
     x="227.52899"
     y="95.945808"
     id="text4259"
     sodipodi:linespacing="125%"><tspan
       sodipodi:role="line"
       id="tspan4261"
       x="227.52899"
       y="95.945808">Final Draft (rigged)</tspan></text>
  <text
     xml:space="preserve"
     style="font-style:normal;font-variant:normal;font-weight:300;font-stretch:normal;font-size:5px;line-height:125%;font-family:Seravek;-inkscape-font-specification:'Seravek Light';text-align:start;letter-spacing:0px;word-spacing:0px;writing-mode:lr-tb;text-anchor:start;fill:#000000;fill-opacity:1;stroke:none;stroke-width:1px;stroke-linecap:butt;stroke-linejoin:miter;stroke-opacity:1"
     x="176.14845"
     y="114.34063"
     id="text4263"
     sodipodi:linespacing="125%"><tspan
       sodipodi:role="line"
       id="tspan4265"
       x="176.14845"
       y="114.34063">1st Draft (unrigged)</tspan></text>
  <text
     xml:space="preserve"
     style="font-style:normal;font-variant:normal;font-weight:300;font-stretch:normal;font-size:7.5px;line-height:125%;font-family:Seravek;-inkscape-font-specification:'Seravek Light';text-align:start;letter-spacing:0px;word-spacing:0px;writing-mode:lr-tb;text-anchor:start;fill:#000000;fill-opacity:1;stroke:none;stroke-width:1px;stroke-linecap:butt;stroke-linejoin:miter;stroke-opacity:1"
     x="214.75003"
     y="144.89902"
     id="text4267"
     sodipodi:linespacing="125%"><tspan
       sodipodi:role="line"
       id="tspan4269"
       x="214.75003"
       y="144.89902">Meridian Way</tspan></text>
  <text
     xml:space="preserve"
     style="font-style:italic;font-variant:normal;font-weight:normal;font-stretch:normal;font-size:12.5px;line-height:125%;font-family:'Bookman Old Style';-inkscape-font-specification:Sans;text-align:start;letter-spacing:0px;word-spacing:0px;writing-mode:lr-tb;text-anchor:start;fill:#000000;fill-opacity:1;stroke:none;stroke-width:1px;stroke-linecap:butt;stroke-linejoin:miter;stroke-opacity:1"
     x="68.922813"
     y="58.607506"
     id="text4271"
     sodipodi:linespacing="125%"><tspan
       sodipodi:role="line"
       id="tspan4273"
       x="68.922813"
       y="58.607506"
       style="font-style:normal;font-variant:normal;font-weight:300;font-stretch:normal;font-size:5px;font-family:Seravek;-inkscape-font-specification:'Seravek Light'">bad hang </tspan><tspan
       sodipodi:role="line"
       x="68.922813"
       y="64.857506"
       id="tspan4275"
       style="font-style:normal;font-variant:normal;font-weight:300;font-stretch:normal;font-size:5px;font-family:Seravek;-inkscape-font-specification:'Seravek Light'">bolt me!</tspan></text>
  <path
     style="color:#000000;clip-rule:nonzero;display:inline;overflow:visible;visibility:visible;opacity:1;isolation:auto;mix-blend-mode:normal;color-interpolation:sRGB;color-interpolation-filters:linearRGB;solid-color:#000000;solid-opacity:1;fill:none;fill-opacity:1;fill-rule:nonzero;stroke:#000000;stroke-width:0.34999999;stroke-linecap:butt;stroke-linejoin:bevel;stroke-miterlimit:4;stroke-dasharray:none;stroke-dashoffset:0;stroke-opacity:1;color-rendering:auto;image-rendering:auto;shape-rendering:auto;text-rendering:auto;enable-background:accumulate"
     d="m 187.45962,86.570375 0.77139,-0.57854 c 0,0 0.0643,-0.642833 0.3857,-0.25713 0.32141,0.38569 0.32141,0.12856 0.32141,0.44997 0,0.32142 0.12856,1.092813 -0.12857,1.157093 -0.25713,0.0643 -0.77138,0.25713 -0.77138,0.25713 l -0.57855,0.192853 -0.38569,-0.899963 z"
     id="path4281"
     inkscape:connector-curvature="0" />
  <path
     style="color:#000000;clip-rule:nonzero;display:inline;overflow:visible;visibility:visible;opacity:1;isolation:auto;mix-blend-mode:normal;color-interpolation:sRGB;color-interpolation-filters:linearRGB;solid-color:#000000;solid-opacity:1;fill:none;fill-opacity:1;fill-rule:nonzero;stroke:#000000;stroke-width:0.34999999;stroke-linecap:butt;stroke-linejoin:bevel;stroke-miterlimit:4;stroke-dasharray:none;stroke-dashoffset:0;stroke-opacity:1;color-rendering:auto;image-rendering:auto;shape-rendering:auto;text-rendering:auto;enable-background:accumulate"
     d="m 190.03092,85.606132 1.92847,-0.64282 0.25713,0.899953 c 0,0 -0.25713,1.092803 -0.64282,1.157093 -0.3857,0.0643 -0.96424,0.51426 -1.02852,0 -0.0643,-0.514263 -0.51426,-1.414226 -0.51426,-1.414226 z"
     id="path4283"
     inkscape:connector-curvature="0" />
  <path
     style="color:#000000;clip-rule:nonzero;display:inline;overflow:visible;visibility:visible;opacity:1;isolation:auto;mix-blend-mode:normal;color-interpolation:sRGB;color-interpolation-filters:linearRGB;solid-color:#000000;solid-opacity:1;fill:none;fill-opacity:1;fill-rule:nonzero;stroke:#000000;stroke-width:0.34999999;stroke-linecap:butt;stroke-linejoin:bevel;stroke-miterlimit:4;stroke-dasharray:none;stroke-dashoffset:0;stroke-opacity:1;color-rendering:auto;image-rendering:auto;shape-rendering:auto;text-rendering:auto;enable-background:accumulate"
     d="m 192.28081,88.048881 c 0.38569,-0.3857 1.47849,-0.835683 1.47849,-0.835683 l 0.32141,0.32142 c 0,0 0,0.771383 -0.12856,0.964233 -0.12857,0.192853 -0.96424,0.321423 -0.96424,0.321423 z"
     id="path4285"
     inkscape:connector-curvature="0" />
  <path
     style="color:#000000;clip-rule:nonzero;display:inline;overflow:visible;visibility:visible;opacity:1;isolation:auto;mix-blend-mode:normal;color-interpolation:sRGB;color-interpolation-filters:linearRGB;solid-color:#000000;solid-opacity:1;fill:none;fill-opacity:1;fill-rule:nonzero;stroke:#000000;stroke-width:0.34999999;stroke-linecap:butt;stroke-linejoin:bevel;stroke-miterlimit:4;stroke-dasharray:none;stroke-dashoffset:0;stroke-opacity:1;color-rendering:auto;image-rendering:auto;shape-rendering:auto;text-rendering:auto;enable-background:accumulate"
     d="m 192.28081,90.041637 1.15708,-0.514263 0.89995,0.642833 -0.0643,0.514263 c 0,0 -0.32141,0.38569 -0.57854,0.38569 -0.25713,0 -0.89995,0 -0.89995,0 z"
     id="path4287"
     inkscape:connector-curvature="0" />
  <path
     style="color:#000000;clip-rule:nonzero;display:inline;overflow:visible;visibility:visible;opacity:1;isolation:auto;mix-blend-mode:normal;color-interpolation:sRGB;color-interpolation-filters:linearRGB;solid-color:#000000;solid-opacity:1;fill:none;fill-opacity:1;fill-rule:nonzero;stroke:#000000;stroke-width:0.34999999;stroke-linecap:butt;stroke-linejoin:bevel;stroke-miterlimit:4;stroke-dasharray:none;stroke-dashoffset:0;stroke-opacity:1;color-rendering:auto;image-rendering:auto;shape-rendering:auto;text-rendering:auto;enable-background:accumulate"
     d="m 190.60946,87.727461 1.28565,0.32142 0.12857,0.642823 -0.44998,0.32141 c 0,0 -0.70711,-0.12856 -0.77139,-0.385693 -0.0643,-0.25713 -0.19285,-0.89996 -0.19285,-0.89996 z"
     id="path4289"
     inkscape:connector-curvature="0" />
  <path
     style="color:#000000;clip-rule:nonzero;display:inline;overflow:visible;visibility:visible;opacity:1;isolation:auto;mix-blend-mode:normal;color-interpolation:sRGB;color-interpolation-filters:linearRGB;solid-color:#000000;solid-opacity:1;fill:none;fill-opacity:1;fill-rule:nonzero;stroke:#000000;stroke-width:0.34999999;stroke-linecap:butt;stroke-linejoin:bevel;stroke-miterlimit:4;stroke-dasharray:none;stroke-dashoffset:0;stroke-opacity:1;color-rendering:auto;image-rendering:auto;shape-rendering:auto;text-rendering:auto;enable-background:accumulate"
     d="m 194.8521,87.856031 1.41422,0.57854 c 0,0 0.19284,1.285656 0,1.542786 -0.19285,0.25713 -0.19285,0.32141 -0.51426,0.32141 -0.32141,0 -1.28565,-0.707103 -1.28565,-0.707103 z"
     id="path4291"
     inkscape:connector-curvature="0" />
  <path
     style="color:#000000;clip-rule:nonzero;display:inline;overflow:visible;visibility:visible;opacity:1;isolation:auto;mix-blend-mode:normal;color-interpolation:sRGB;color-interpolation-filters:linearRGB;solid-color:#000000;solid-opacity:1;fill:none;fill-opacity:1;fill-rule:nonzero;stroke:#000000;stroke-width:0.34999999;stroke-linecap:butt;stroke-linejoin:bevel;stroke-miterlimit:4;stroke-dasharray:none;stroke-dashoffset:0;stroke-opacity:1;color-rendering:auto;image-rendering:auto;shape-rendering:auto;text-rendering:auto;enable-background:accumulate"
     d="m 194.98067,90.68447 1.47849,0.12856 0.25713,0.899963 -0.12856,0.44997 c 0,0 -0.32141,0 -0.64283,0 -0.32141,0 -1.28564,-0.32141 -1.28564,-0.32141 l 0.19284,-0.835673 z"
     id="path4293"
     inkscape:connector-curvature="0" />
  <path
     style="color:#000000;clip-rule:nonzero;display:inline;overflow:visible;visibility:visible;opacity:1;isolation:auto;mix-blend-mode:normal;color-interpolation:sRGB;color-interpolation-filters:linearRGB;solid-color:#000000;solid-opacity:1;fill:none;fill-opacity:1;fill-rule:nonzero;stroke:#000000;stroke-width:0.64999998;stroke-linecap:butt;stroke-linejoin:bevel;stroke-miterlimit:4;stroke-dasharray:none;stroke-dashoffset:0;stroke-opacity:1;color-rendering:auto;image-rendering:auto;shape-rendering:auto;text-rendering:auto;enable-background:accumulate"
     d="m 205.58727,92.484373 c 0,0 2.69986,-0.44997 3.14984,-0.51425 0.44998,-0.0643 4.69262,1.028513 5.07831,1.285643 0.3857,0.25713 1.28565,0.899963 1.34993,1.478506 0.0643,0.57854 0.25713,1.928476 0.32142,2.121326 0.0643,0.192849 0.38569,0.964239 0.83567,1.671342 0.44997,0.707123 0.89995,1.157103 1.22136,1.79993 0.32142,0.64283 1.67135,2.12133 1.67135,2.12133 l 0.51426,0.89997 c 0,0 -0.12857,0.32141 -0.70711,0.38569 -0.57854,0.0643 -0.89996,0.0643 -1.54278,-0.51426 -0.64282,-0.57855 -2.50701,-2.05706 -2.82843,-2.37847 -0.32141,-0.32141 -0.32141,-0.25713 -0.89995,-1.221377 -0.57854,-0.964233 -2.12132,-2.635585 -2.37845,-2.828435 -0.25713,-0.192853 -1.4785,-1.092803 -2.24989,-1.671356 -0.77139,-0.578543 -0.64282,-0.578543 -1.86419,-1.285643 -1.22136,-0.707113 -1.67134,-1.349946 -1.67134,-1.349946 z"
     id="path4295"
     inkscape:connector-curvature="0" />
  <path
     style="color:#000000;clip-rule:nonzero;display:inline;overflow:visible;visibility:visible;opacity:1;isolation:auto;mix-blend-mode:normal;color-interpolation:sRGB;color-interpolation-filters:linearRGB;solid-color:#000000;solid-opacity:1;fill:none;fill-opacity:1;fill-rule:nonzero;stroke:#000000;stroke-width:0.34999999;stroke-linecap:butt;stroke-linejoin:bevel;stroke-miterlimit:4;stroke-dasharray:none;stroke-dashoffset:0;stroke-opacity:1;color-rendering:auto;image-rendering:auto;shape-rendering:auto;text-rendering:auto;enable-background:accumulate"
     d="m 218.65911,100.53524 c 0,0 0.54546,0.5 1.22728,1.27274 0.68181,0.77272 2.54545,0.40909 2.54545,0.40909 l 4.54545,12.5455 1.72728,16.72734"
     id="path4297"
     inkscape:connector-curvature="0" />
  <path
     style="color:#000000;clip-rule:nonzero;display:inline;overflow:visible;visibility:visible;opacity:1;isolation:auto;mix-blend-mode:normal;color-interpolation:sRGB;color-interpolation-filters:linearRGB;solid-color:#000000;solid-opacity:1;fill:none;fill-opacity:1;fill-rule:nonzero;stroke:#000000;stroke-width:0.34999999;stroke-linecap:butt;stroke-linejoin:bevel;stroke-miterlimit:4;stroke-dasharray:none;stroke-dashoffset:0;stroke-opacity:1;color-rendering:auto;image-rendering:auto;shape-rendering:auto;text-rendering:auto;enable-background:accumulate"
     d="m 228.43184,114.21712 -0.86364,0.34091 c 0,0 -0.0682,0.13636 -0.0909,-0.0455 -0.0227,-0.18182 -0.8409,-0.11364 -0.95454,0.13636 -0.11364,0.25 -0.13636,0.4091 0.0909,0.5 0.22727,0.0909 0.52273,-0.20454 0.70454,-0.29545 0.18182,-0.0909 0.18182,-0.29545 0.18182,-0.29545"
     id="path4299"
     inkscape:connector-curvature="0" />
  <path
     style="opacity:1;fill:#000000;fill-opacity:1;fill-rule:nonzero;stroke:none;stroke-width:0.64999998;stroke-linecap:butt;stroke-linejoin:bevel;stroke-miterlimit:4;stroke-dasharray:none;stroke-dashoffset:0;stroke-opacity:1"
     id="path4301"
     sodipodi:type="arc"
     sodipodi:cx="222.30685"
     sodipodi:cy="102.23991"
     sodipodi:rx="0.28409091"
     sodipodi:ry="0.36363637"
     sodipodi:start="0"
     sodipodi:end="6.270043"
     sodipodi:open="true"
     d="m 222.59095,102.23991 a 0.28409091,0.36363637 0 0 1 -0.28316,0.36363 0.28409091,0.36363637 0 0 1 -0.28502,-0.36124 0.28409091,0.36363637 0 0 1 0.28128,-0.36601 0.28409091,0.36363637 0 0 1 0.28687,0.35884" />
  <path
     style="opacity:1;fill:#000000;fill-opacity:1;fill-rule:nonzero;stroke:none;stroke-width:0.64999998;stroke-linecap:butt;stroke-linejoin:bevel;stroke-miterlimit:4;stroke-dasharray:none;stroke-dashoffset:0;stroke-opacity:1"
     id="path4303"
     sodipodi:type="arc"
     sodipodi:cx="218.61366"
     sodipodi:cy="100.54673"
     sodipodi:rx="0.34090909"
     sodipodi:ry="0.28409091"
     sodipodi:start="0"
     sodipodi:end="6.270043"
     sodipodi:open="true"
     d="m 218.95457,100.54673 a 0.34090909,0.28409091 0 0 1 -0.33979,0.28409 0.34090909,0.28409091 0 0 1 -0.34202,-0.28222 0.34090909,0.28409091 0 0 1 0.33754,-0.28595 0.34090909,0.28409091 0 0 1 0.34424,0.28035" />
  <path
     style="color:#000000;clip-rule:nonzero;display:inline;overflow:visible;visibility:visible;opacity:1;isolation:auto;mix-blend-mode:normal;color-interpolation:sRGB;color-interpolation-filters:linearRGB;solid-color:#000000;solid-opacity:1;fill:none;fill-opacity:1;fill-rule:nonzero;stroke:#000000;stroke-width:0.34999999;stroke-linecap:butt;stroke-linejoin:bevel;stroke-miterlimit:4;stroke-dasharray:none;stroke-dashoffset:0;stroke-opacity:1;color-rendering:auto;image-rendering:auto;shape-rendering:auto;text-rendering:auto;enable-background:accumulate"
     d="m 47.516763,117.10472 0.835672,-14.97793 -1.285649,-1.02853"
     id="path4305"
     inkscape:connector-curvature="0" />
  <path
     style="color:#000000;clip-rule:nonzero;display:inline;overflow:visible;visibility:visible;opacity:1;isolation:auto;mix-blend-mode:normal;color-interpolation:sRGB;color-interpolation-filters:linearRGB;solid-color:#000000;solid-opacity:1;fill:none;fill-opacity:1;fill-rule:nonzero;stroke:#000000;stroke-width:0.34999999;stroke-linecap:butt;stroke-linejoin:bevel;stroke-miterlimit:4;stroke-dasharray:none;stroke-dashoffset:0;stroke-opacity:1;color-rendering:auto;image-rendering:auto;shape-rendering:auto;text-rendering:auto;enable-background:accumulate"
     d="m 49.316671,100.9697 -0.771389,1.09281 c 0,0 -0.25713,-0.0643 0.899954,0.7071 1.157084,0.7714 2.571297,0.19285 3.342687,-0.32141 0.771389,-0.51426 2.699862,-1.73563 4.564053,-6.363995 1.86419,-4.628345 2.571297,-10.41378 2.571297,-10.41378 0,0 1.864191,-0.128573 2.63558,-0.128573 0.771389,0 3.214122,-0.44998 3.214122,-0.44998"
     id="path4307"
     inkscape:connector-curvature="0" />
  <path
     style="color:#000000;clip-rule:nonzero;display:inline;overflow:visible;visibility:visible;opacity:1;isolation:auto;mix-blend-mode:normal;color-interpolation:sRGB;color-interpolation-filters:linearRGB;solid-color:#000000;solid-opacity:1;fill:none;fill-opacity:1;fill-rule:nonzero;stroke:#000000;stroke-width:0.34999999;stroke-linecap:butt;stroke-linejoin:bevel;stroke-miterlimit:4;stroke-dasharray:none;stroke-dashoffset:0;stroke-opacity:1;color-rendering:auto;image-rendering:auto;shape-rendering:auto;text-rendering:auto;enable-background:accumulate"
     d="m 83.643491,86.698948 c 0.128565,-0.257133 2.828428,-11.956566 3.599817,-12.663679 0.771389,-0.707113 3.535534,-1.992776 4.049789,-2.378466 0.51426,-0.385703 3.85695,-2.828449 3.85695,-2.828449 l 1.67134,17.999164 0,0 0,0"
     id="path4309"
     inkscape:connector-curvature="0" />
  <path
     style="opacity:1;fill:#000000;fill-opacity:1;fill-rule:nonzero;stroke:none;stroke-width:0.64999998;stroke-linecap:butt;stroke-linejoin:bevel;stroke-miterlimit:4;stroke-dasharray:none;stroke-dashoffset:0;stroke-opacity:1"
     id="path4311"
     sodipodi:type="arc"
     sodipodi:cx="95.181839"
     sodipodi:cy="68.773872"
     sodipodi:rx="0.35227272"
     sodipodi:ry="0.30681819"
     sodipodi:start="0"
     sodipodi:end="6.270043"
     sodipodi:open="true"
     d="m 95.534112,68.773872 a 0.35227272,0.30681819 0 0 1 -0.351116,0.306817 0.35227272,0.30681819 0 0 1 -0.353422,-0.3048 0.35227272,0.30681819 0 0 1 0.348793,-0.30882 0.35227272,0.30681819 0 0 1 0.355714,0.302771" />
  <path
     style="color:#000000;clip-rule:nonzero;display:inline;overflow:visible;visibility:visible;opacity:1;isolation:auto;mix-blend-mode:normal;color-interpolation:sRGB;color-interpolation-filters:linearRGB;solid-color:#000000;solid-opacity:1;fill:none;fill-opacity:1;fill-rule:nonzero;stroke:#000000;stroke-width:0.25;stroke-linecap:butt;stroke-linejoin:bevel;stroke-miterlimit:4;stroke-dasharray:none;stroke-dashoffset:0;stroke-opacity:1;color-rendering:auto;image-rendering:auto;shape-rendering:auto;text-rendering:auto;enable-background:accumulate;marker-end:url(#Arrow1Mend);marker-start:"
     d="m 138.20723,54.347113 7.64961,-1.607061"
     id="path4313"
     inkscape:connector-curvature="0" />
  <path
     style="color:#000000;clip-rule:nonzero;display:inline;overflow:visible;visibility:visible;opacity:1;isolation:auto;mix-blend-mode:normal;color-interpolation:sRGB;color-interpolation-filters:linearRGB;solid-color:#000000;solid-opacity:1;fill:none;fill-opacity:1;fill-rule:nonzero;stroke:#000000;stroke-width:0.25;stroke-linecap:butt;stroke-linejoin:bevel;stroke-miterlimit:4;stroke-dasharray:none;stroke-dashoffset:0;stroke-opacity:1;color-rendering:auto;image-rendering:auto;shape-rendering:auto;text-rendering:auto;enable-background:accumulate"
     d="m 138.25,54.370907 -0.86364,-0.818183"
     id="path4683"
     inkscape:connector-curvature="0"
     sodipodi:nodetypes="cc" />
  <path
     style="color:#000000;clip-rule:nonzero;display:inline;overflow:visible;visibility:visible;opacity:1;isolation:auto;mix-blend-mode:normal;color-interpolation:sRGB;color-interpolation-filters:linearRGB;solid-color:#000000;solid-opacity:1;fill:none;fill-opacity:1;fill-rule:nonzero;stroke:#000000;stroke-width:0.25;stroke-linecap:butt;stroke-linejoin:bevel;stroke-miterlimit:4;stroke-dasharray:none;stroke-dashoffset:0;stroke-opacity:1;color-rendering:auto;image-rendering:auto;shape-rendering:auto;text-rendering:auto;enable-background:accumulate"
     d="m 139.27273,54.075452 -0.81819,-0.75"
     id="path4685"
     inkscape:connector-curvature="0"
     sodipodi:nodetypes="cc" />
  <text
     sodipodi:linespacing="125%"
     id="use4687"
     y="33.267349"
     x="29.59137"
     style="font-style:normal;font-variant:normal;font-weight:normal;font-stretch:normal;font-size:12.5px;line-height:125%;font-family:Seravek;-inkscape-font-specification:Seravek;text-align:start;letter-spacing:0px;word-spacing:0px;writing-mode:lr-tb;text-anchor:start;fill:#000000;fill-opacity:1;stroke:none;stroke-width:1px;stroke-linecap:butt;stroke-linejoin:miter;stroke-opacity:1"
     xml:space="preserve"><tspan
       style="font-style:normal;font-variant:normal;font-weight:normal;font-stretch:normal;font-size:7.5px;font-family:Seravek;-inkscape-font-specification:Seravek"
       y="33.267349"
       x="29.59137"
       id="tspan4691"
       sodipodi:role="line">N &lt;--&gt; S</tspan><tspan
       style="font-style:normal;font-variant:normal;font-weight:normal;font-stretch:normal;font-size:5px;font-family:Seravek;-inkscape-font-specification:Seravek"
       id="tspan4693"
       y="42.642349"
       x="29.59137"
       sodipodi:role="line" /></text>
</svg>
